<svg xmlns="http://www.w3.org/2000/svg" viewBox="0 0 512 512" role="img" aria-label="quali.chat app icon">
  <defs>
    <linearGradient id="g1" x1="0" y1="0" x2="1" y2="1">
      <stop offset="0%" stop-color="#7c5cff"/>
      <stop offset="55%" stop-color="#ff5cf3"/>
      <stop offset="100%" stop-color="#00e6b3"/>
    </linearGradient>
    <filter id="glow" x="-20%" y="-20%" width="140%" height="140%">
      <feGaussianBlur in="SourceGraphic" stdDeviation="2.4" result="blur"/>
      <feMerge>
        <feMergeNode in="blur"/>
        <feMergeNode in="SourceGraphic"/>
      </feMerge>
    </filter>
  </defs>
  <rect width="512" height="512" rx="96" fill="#0b0f14"/>
  <circle cx="256" cy="240" r="152" fill="none" stroke="url(#g1)" stroke-width="56" stroke-linecap="round" filter="url(#glow)"/>
  <path d="M344 352c-24 24-56 40-88 40-27.2 0-52.8-8.4-74.4-23.2-6.4-4.4-14.8 2-12.8 9.6l16.4 59.2c1.6 6 8.4 8.8 13.6 5.2 26.4-18.4 51.2-30 74.4-34.8 31.2-6.4 59.2-24 80-48.8 5.6-6.4-3.2-15.6-9.2-10.4z" fill="url(#g1)"/>
  <circle cx="256" cy="240" r="96" fill="#0b0f14"/>
</svg>

