<svg xmlns="http://www.w3.org/2000/svg" viewBox="0 0 128 128" role="img" aria-label="quali.chat">
  <defs>
    <linearGradient id="g1" x1="0" y1="0" x2="1" y2="1">
      <stop offset="0%" stop-color="#7c5cff"/>
      <stop offset="55%" stop-color="#ff5cf3"/>
      <stop offset="100%" stop-color="#00e6b3"/>
    </linearGradient>
    <filter id="glow" x="-20%" y="-20%" width="140%" height="140%">
      <feGaussianBlur in="SourceGraphic" stdDeviation="1.2" result="blur"/>
      <feMerge>
        <feMergeNode in="blur"/>
        <feMergeNode in="SourceGraphic"/>
      </feMerge>
    </filter>
  </defs>
  <circle cx="64" cy="60" r="38" fill="none" stroke="url(#g1)" stroke-width="14" stroke-linecap="round" filter="url(#glow)"/>
  <path d="M86 88c-6 6-14 10-22 10-6.8 0-13.2-2.1-18.6-5.8-1.6-1.1-3.7 0.5-3.2 2.4l4.1 14.8c.4 1.5 2.1 2.2 3.4 1.3 6.6-4.6 12.8-7.5 18.6-8.7 7.8-1.6 14.8-6 20-12.2 1.4-1.6-.8-3.9-2.3-2.6z" fill="url(#g1)"/>
  <circle cx="64" cy="60" r="24" fill="#0b0f14"/>
</svg>

